<?xml version="1.0" encoding="utf-8"?>
<!-- Generator: Adobe Illustrator 17.0.0, SVG Export Plug-In . SVG Version: 6.00 Build 0)  -->
<!DOCTYPE svg PUBLIC "-//W3C//DTD SVG 1.1//EN" "http://www.w3.org/Graphics/SVG/1.1/DTD/svg11.dtd">
<svg version="1.1" id="Layer_1" xmlns="http://www.w3.org/2000/svg" xmlns:xlink="http://www.w3.org/1999/xlink" x="0px" y="0px"
	 width="261.143px" height="261.143px" viewBox="0 0 261.143 261.143" enable-background="new 0 0 261.143 261.143"
	 xml:space="preserve">
<circle fill="#F7931A" cx="130.571" cy="130.571" r="130.571"/>
<path fill="#FFFFFF" d="M206.649,110.73c3.177-21.273-13.02-32.709-35.167-40.338l7.184-28.817l-17.546-4.372l-6.994,28.058
	c-4.606-1.149-9.343-2.233-14.049-3.307l7.044-28.243l-17.531-4.372l-7.189,28.807c-3.817-0.869-7.564-1.729-11.201-2.633l0.02-0.09
	l-24.191-6.04l-4.666,18.735c0,0,13.015,2.983,12.74,3.167c7.104,1.774,8.393,6.475,8.174,10.202l-8.183,32.829
	c0.49,0.125,1.124,0.305,1.824,0.585l-1.849-0.46L83.592,160.43c-0.869,2.158-3.073,5.396-8.039,4.167
	c0.175,0.255-12.75-3.182-12.75-3.182l-8.708,20.084l22.832,5.69c4.247,1.064,8.408,2.178,12.5,3.227l-7.259,29.152l17.521,4.372
	l7.194-28.837c4.781,1.299,9.427,2.498,13.974,3.627l-7.164,28.702l17.541,4.372l7.259-29.092
	c29.911,5.66,52.408,3.377,61.866-23.671c7.629-21.783-0.375-34.348-16.112-42.546c11.461-2.653,20.094-10.192,22.397-25.765
	H206.649z M166.566,166.93c-5.426,21.783-42.097,10.012-53.992,7.054l9.632-38.614c11.891,2.968,50.015,8.843,44.365,31.56H166.566z
	 M171.987,110.415c-4.946,19.814-35.472,9.747-45.379,7.279l8.733-35.022C145.248,85.14,177.142,89.746,171.987,110.415z"/>
</svg>
