<?xml version="1.0" encoding="utf-8"?>
<!-- Generator: Adobe Illustrator 17.0.0, SVG Export Plug-In . SVG Version: 6.00 Build 0)  -->
<!DOCTYPE svg PUBLIC "-//W3C//DTD SVG 1.1//EN" "http://www.w3.org/Graphics/SVG/1.1/DTD/svg11.dtd">
<svg version="1.1" id="Layer_1" xmlns="http://www.w3.org/2000/svg" xmlns:xlink="http://www.w3.org/1999/xlink" x="0px" y="0px"
	 width="500px" height="500px" viewBox="0 0 500 500" enable-background="new 0 0 500 500" xml:space="preserve">
<circle fill="#7DC581" cx="250" cy="250" r="250"/>
<circle fill="none" cx="250.008" cy="250.021" r="253.5"/>
<circle fill="none" cx="250.008" cy="250.021" r="253.5"/>
<path fill="#F2F2F2" stroke="#F2F2F2" stroke-width="20" stroke-miterlimit="10" d="M376.758,106.375c0-11.046-8.954-20-20-20h-214
	c-11.046,0-20,8.954-20,20v288c0,11.046,8.954,20,20,20h214c11.046,0,20-8.954,20-20V106.375z"/>
<path fill="#7DC581" d="M366.758,116.375c0-11.046-8.954-20-20-20h-194c-11.046,0-20,8.954-20,20v268c0,11.046,8.954,20,20,20h194
	c11.046,0,20-8.954,20-20V116.375z"/>
<g>
	<path fill="#F2F2F2" d="M349.758,150.375c0,5.523-4.477,10-10,10h-180c-5.523,0-10-4.477-10-10l0,0c0-5.523,4.477-10,10-10h180
		C345.281,140.375,349.758,144.852,349.758,150.375L349.758,150.375z"/>
	<path fill="#F2F2F2" d="M349.758,190.375c0,5.523-4.477,10-10,10h-180c-5.523,0-10-4.477-10-10l0,0c0-5.523,4.477-10,10-10h180
		C345.281,180.375,349.758,184.852,349.758,190.375L349.758,190.375z"/>
	<path fill="#F2F2F2" d="M349.758,230.375c0,5.523-4.477,10-10,10h-180c-5.523,0-10-4.477-10-10l0,0c0-5.523,4.477-10,10-10h180
		C345.281,220.375,349.758,224.852,349.758,230.375L349.758,230.375z"/>
	<path fill="#F2F2F2" d="M349.758,270.375c0,5.523-4.477,10-10,10h-180c-5.523,0-10-4.477-10-10l0,0c0-5.523,4.477-10,10-10h180
		C345.281,260.375,349.758,264.852,349.758,270.375L349.758,270.375z"/>
	<path fill="#F2F2F2" d="M349.758,310.375c0,5.523-4.477,10-10,10h-180c-5.523,0-10-4.477-10-10l0,0c0-5.523,4.477-10,10-10h180
		C345.281,300.375,349.758,304.852,349.758,310.375L349.758,310.375z"/>
	<path fill="#F2F2F2" d="M349.758,350.375c0,5.523-4.477,10-10,10h-50c-5.523,0-10-4.477-10-10l0,0c0-5.523,4.477-10,10-10h50
		C345.281,340.375,349.758,344.852,349.758,350.375L349.758,350.375z"/>
</g>
</svg>
