<?xml version="1.0" encoding="utf-8"?>
<!-- Generator: Adobe Illustrator 17.0.0, SVG Export Plug-In . SVG Version: 6.00 Build 0)  -->
<!DOCTYPE svg PUBLIC "-//W3C//DTD SVG 1.1//EN" "http://www.w3.org/Graphics/SVG/1.1/DTD/svg11.dtd">
<svg version="1.1" id="Layer_1" xmlns="http://www.w3.org/2000/svg" xmlns:xlink="http://www.w3.org/1999/xlink" x="0px" y="0px"
	 width="537.016px" height="537px" viewBox="0 0 537.016 537" enable-background="new 0 0 537.016 537" xml:space="preserve">
<circle fill="#F2F2F2" stroke="#F5861F" stroke-width="30" stroke-miterlimit="10" cx="268.516" cy="268.521" r="253.5"/>
<circle fill="none" cx="268.516" cy="268.521" r="253.5"/>
<circle fill="none" cx="268.516" cy="268.521" r="253.5"/>
<g>
	<defs>
		<circle id="SVGID_1_" cx="268.508" cy="268.5" r="253.5"/>
	</defs>
	<clipPath id="SVGID_2_">
		<use xlink:href="#SVGID_1_"  overflow="visible"/>
	</clipPath>
	<g clip-path="url(#SVGID_2_)">
		<path fill="#F5861F" d="M291.008,290c0,0-30.528,6.078-43.262,7.372c-45.897,4.667-152.92,18.131-165.447,43.185
			c-16.002,32.005-45.097,317.137-45.097,317.137l231.306,21.821L291.008,290z"/>
		<path fill="#F5861F" d="M268.508,295.46c0,0,10.638,0.818,26.845,2.546c48.621,5.183,147.362,18.548,159.364,42.552
			c16.002,32.005,45.097,317.137,45.097,317.137l-231.306,21.821V295.46z"/>
		<circle fill="#F5861F" cx="268.508" cy="181.262" r="128.746"/>
	</g>
</g>
<circle fill="none" cx="268.508" cy="268.5" r="253.5"/>
<g>
	<path fill="#F2F2F2" d="M215.135,105.055c3.234-2.709,6.754-5.246,10.557-7.606c3.803-2.361,7.889-4.436,12.262-6.229
		c4.37-1.791,9.069-3.19,14.097-4.196c5.026-1.004,10.468-1.508,16.326-1.508c8.217,0,15.626,1.094,22.228,3.278
		c6.6,2.187,12.216,5.311,16.851,9.376c4.633,4.065,8.196,8.962,10.687,14.687c2.491,5.727,3.738,12.087,3.738,19.08
		c0,6.733-0.918,12.503-2.754,17.31c-1.835,4.809-4.176,9.005-7.016,12.589c-2.842,3.586-5.946,6.667-9.311,9.245
		c-3.367,2.579-6.556,5.006-9.573,7.278c-3.016,2.275-5.639,4.504-7.869,6.688c-2.229,2.186-3.606,4.635-4.13,7.343l-3.672,18.359
		h-27.8l-2.885-21.113c-0.088-0.524-0.154-1.049-0.197-1.573c-0.045-0.525-0.065-1.049-0.065-1.574
		c0-3.846,0.918-7.212,2.754-10.097c1.835-2.885,4.151-5.528,6.95-7.934c2.797-2.404,5.813-4.721,9.049-6.95
		c3.234-2.23,6.25-4.633,9.049-7.212c2.796-2.578,5.114-5.463,6.95-8.655c1.836-3.191,2.754-6.971,2.754-11.343
		c0-5.245-1.727-9.419-5.18-12.524c-3.455-3.102-8.197-4.655-14.228-4.655c-4.635,0-8.504,0.481-11.606,1.442
		c-3.104,0.963-5.77,2.033-7.999,3.213c-2.23,1.18-4.176,2.252-5.836,3.213c-1.662,0.963-3.323,1.442-4.983,1.442
		c-3.76,0-6.556-1.617-8.393-4.852L215.135,105.055z M239.264,258.091c0-3.147,0.591-6.075,1.771-8.786
		c1.18-2.709,2.796-5.069,4.852-7.081c2.054-2.011,4.48-3.606,7.279-4.786c2.796-1.181,5.856-1.771,9.179-1.771
		c3.234,0,6.25,0.59,9.049,1.771c2.796,1.18,5.245,2.776,7.343,4.786c2.099,2.012,3.738,4.372,4.918,7.081
		c1.181,2.711,1.771,5.639,1.771,8.786c0,3.148-0.59,6.099-1.771,8.852c-1.18,2.754-2.819,5.137-4.918,7.147
		c-2.098,2.012-4.547,3.586-7.343,4.721c-2.799,1.135-5.815,1.705-9.049,1.705c-3.324,0-6.383-0.57-9.179-1.705
		c-2.799-1.135-5.225-2.709-7.279-4.721c-2.055-2.011-3.672-4.393-4.852-7.147C239.855,264.189,239.264,261.238,239.264,258.091z"/>
</g>
</svg>
