<?xml version="1.0" encoding="utf-8"?>
<!-- Generator: Adobe Illustrator 22.0.0, SVG Export Plug-In . SVG Version: 6.00 Build 0)  -->
<svg version="1.1" id="Layer_1" xmlns="http://www.w3.org/2000/svg" xmlns:xlink="http://www.w3.org/1999/xlink" x="0px" y="0px"
	 viewBox="0 0 507.4 506.9" style="enable-background:new 0 0 507.4 506.9;" xml:space="preserve">
<style type="text/css">
	.st0{fill:#F2F2F2;}
	.st1{clip-path:url(#SVGID_2_);}
	.st2{fill:#F5861F;}
	.st3{fill:none;}
</style>
<circle class="st0" cx="253.5" cy="253.5" r="253.5"/>
<g>
	<defs>
		<circle id="SVGID_1_" cx="253.5" cy="253.5" r="253.5"/>
	</defs>
	<clipPath id="SVGID_2_">
		<use xlink:href="#SVGID_1_"  style="overflow:visible;"/>
	</clipPath>
	<g class="st1">
		<path class="st2" d="M276,275c0,0-30.5,6.1-43.3,7.4c-45.9,4.7-152.9,18.1-165.4,43.2c-16,32-45.1,317.1-45.1,317.1l231.3,21.8
			L276,275z"/>
		<path class="st2" d="M253.5,280.5c0,0,10.6,0.8,26.8,2.5c48.6,5.2,147.4,18.5,159.4,42.6c16,32,45.1,317.1,45.1,317.1l-231.3,21.8
			V280.5z"/>
		<circle class="st2" cx="253.5" cy="166.3" r="128.7"/>
	</g>
</g>
<circle class="st3" cx="253.5" cy="253.5" r="253.5"/>
<g>
	<path class="st0" d="M200.1,90.1c3.2-2.7,6.8-5.2,10.6-7.6c3.8-2.4,7.9-4.4,12.3-6.2c4.4-1.8,9.1-3.2,14.1-4.2
		c5-1,10.5-1.5,16.3-1.5c8.2,0,15.6,1.1,22.2,3.3c6.6,2.2,12.2,5.3,16.9,9.4c4.6,4.1,8.2,9,10.7,14.7c2.5,5.7,3.7,12.1,3.7,19.1
		c0,6.7-0.9,12.5-2.8,17.3c-1.8,4.8-4.2,9-7,12.6c-2.8,3.6-5.9,6.7-9.3,9.2c-3.4,2.6-6.6,5-9.6,7.3c-3,2.3-5.6,4.5-7.9,6.7
		c-2.2,2.2-3.6,4.6-4.1,7.3l-3.7,18.4h-27.8l-2.9-21.1c-0.1-0.5-0.2-1-0.2-1.6c0-0.5-0.1-1-0.1-1.6c0-3.8,0.9-7.2,2.8-10.1
		c1.8-2.9,4.2-5.5,6.9-7.9c2.8-2.4,5.8-4.7,9-7c3.2-2.2,6.2-4.6,9-7.2c2.8-2.6,5.1-5.5,6.9-8.7c1.8-3.2,2.8-7,2.8-11.3
		c0-5.2-1.7-9.4-5.2-12.5c-3.5-3.1-8.2-4.7-14.2-4.7c-4.6,0-8.5,0.5-11.6,1.4c-3.1,1-5.8,2-8,3.2c-2.2,1.2-4.2,2.3-5.8,3.2
		c-1.7,1-3.3,1.4-5,1.4c-3.8,0-6.6-1.6-8.4-4.9L200.1,90.1z M224.3,243.1c0-3.1,0.6-6.1,1.8-8.8c1.2-2.7,2.8-5.1,4.9-7.1
		c2.1-2,4.5-3.6,7.3-4.8c2.8-1.2,5.9-1.8,9.2-1.8c3.2,0,6.2,0.6,9,1.8c2.8,1.2,5.2,2.8,7.3,4.8c2.1,2,3.7,4.4,4.9,7.1
		c1.2,2.7,1.8,5.6,1.8,8.8c0,3.1-0.6,6.1-1.8,8.9c-1.2,2.8-2.8,5.1-4.9,7.1c-2.1,2-4.5,3.6-7.3,4.7c-2.8,1.1-5.8,1.7-9,1.7
		c-3.3,0-6.4-0.6-9.2-1.7c-2.8-1.1-5.2-2.7-7.3-4.7c-2.1-2-3.7-4.4-4.9-7.1C224.8,249.2,224.3,246.2,224.3,243.1z"/>
</g>
</svg>
