<?xml version="1.0" encoding="utf-8"?>
<!-- Generator: Adobe Illustrator 17.0.0, SVG Export Plug-In . SVG Version: 6.00 Build 0)  -->
<!DOCTYPE svg PUBLIC "-//W3C//DTD SVG 1.1//EN" "http://www.w3.org/Graphics/SVG/1.1/DTD/svg11.dtd">
<svg version="1.1" id="Layer_1" xmlns="http://www.w3.org/2000/svg" xmlns:xlink="http://www.w3.org/1999/xlink" x="0px" y="0px"
	 width="537.016px" height="537px" viewBox="0 0 537.016 537" enable-background="new 0 0 537.016 537" xml:space="preserve">
<circle fill="#F2F2F2" stroke="#A6A6A6" stroke-width="30" stroke-miterlimit="10" cx="268.516" cy="268.521" r="253.5"/>
<circle fill="none" cx="268.516" cy="268.521" r="253.5"/>
<circle fill="none" cx="268.516" cy="268.521" r="253.5"/>
<g>
	<path fill="#A5A5A5" d="M231.266,373.875c0,11.046-8.954,20-20,20h-35c-11.046,0-20-8.954-20-20v-210c0-11.046,8.954-20,20-20h35
		c11.046,0,20,8.954,20,20V373.875z"/>
	<path fill="#A5A5A5" d="M381.266,373.875c0,11.046-8.954,20-20,20h-35c-11.046,0-20-8.954-20-20v-210c0-11.046,8.954-20,20-20h35
		c11.046,0,20,8.954,20,20V373.875z"/>
</g>
</svg>
