<?xml version="1.0" encoding="utf-8"?>
<!-- Generator: Adobe Illustrator 17.0.0, SVG Export Plug-In . SVG Version: 6.00 Build 0)  -->
<!DOCTYPE svg PUBLIC "-//W3C//DTD SVG 1.1//EN" "http://www.w3.org/Graphics/SVG/1.1/DTD/svg11.dtd">
<svg version="1.1" id="Layer_1" xmlns="http://www.w3.org/2000/svg" xmlns:xlink="http://www.w3.org/1999/xlink" x="0px" y="0px"
	 width="537.016px" height="537px" viewBox="0 0 537.016 537" enable-background="new 0 0 537.016 537" xml:space="preserve">
<circle fill="#F2F2F2" stroke="#88D5F5" stroke-width="30" stroke-miterlimit="10" cx="268.516" cy="268.521" r="253.5"/>
<circle fill="none" cx="268.516" cy="268.521" r="253.5"/>
<circle fill="none" cx="268.516" cy="268.521" r="253.5"/>
<path fill="#88D5F5" d="M450.266,367.875c0-8.284-6.716-15-15-15h-334c-8.284,0-15,6.716-15,15l0,0c0,8.284,6.716,15,15,15h334
	C443.55,382.875,450.266,376.159,450.266,367.875L450.266,367.875z"/>
<g>
	<path fill="#88D5F5" stroke="#88D5F5" stroke-width="30" stroke-miterlimit="10" d="M321.72,369.662
		c-3.524,10.468-14.867,16.098-25.336,12.574L159.91,336.292c-10.468-3.524-16.098-14.867-12.574-25.336l67.959-201.868
		c3.524-10.468,14.867-16.098,25.336-12.574l136.474,45.944c10.468,3.524,16.098,14.867,12.574,25.336L321.72,369.662z"/>
	<path fill="#F2F2F2" d="M370.677,177.224c3.524-10.468-2.105-21.812-12.574-25.336l-108.042-36.372
		c-10.468-3.524-21.812,2.105-25.336,12.574l-58.387,173.436c-3.524,10.468,2.105,21.812,12.574,25.336l108.042,36.372
		c10.468,3.524,21.812-2.105,25.336-12.574L370.677,177.224z"/>
</g>
<rect x="131.266" y="382.875" fill="#F2F2F2" width="274" height="24"/>
</svg>
