<?xml version="1.0" encoding="utf-8"?>
<!-- Generator: Adobe Illustrator 17.0.0, SVG Export Plug-In . SVG Version: 6.00 Build 0)  -->
<!DOCTYPE svg PUBLIC "-//W3C//DTD SVG 1.1//EN" "http://www.w3.org/Graphics/SVG/1.1/DTD/svg11.dtd">
<svg version="1.1" id="Layer_1" xmlns="http://www.w3.org/2000/svg" xmlns:xlink="http://www.w3.org/1999/xlink" x="0px" y="0px"
	 width="261.143px" height="261.143px" viewBox="0 0 261.143 261.143" enable-background="new 0 0 261.143 261.143"
	 xml:space="preserve">
<circle fill="#59C6F2" cx="130.571" cy="130.571" r="130.571"/>
<g>
	<path fill="#FFFFFF" d="M188.964,29.313L188.964,29.313l-15.507-0.001v0.001c0,23.439-18.805,42.483-42.151,42.876
		c-0.245-0.003-0.489-0.009-0.734-0.009c-0.245,0-0.49,0.006-0.734,0.009c-23.346-0.392-42.151-19.436-42.151-42.876v-0.001
		l-15.507,0v0.001c0,21.649,11.781,40.545,29.282,50.629c-17.501,10.084-29.282,28.981-29.282,50.629
		c0,21.649,11.781,40.545,29.282,50.63c-17.501,10.084-29.282,28.981-29.282,50.629v0.001l15.507,0v-0.001
		c0-23.444,18.813-42.491,42.166-42.876c0.24,0.003,0.479,0.009,0.719,0.009c0.24,0,0.479-0.006,0.719-0.009
		c23.353,0.384,42.166,19.432,42.166,42.876v0.001l15.507,0v-0.001c0-21.649-11.781-40.545-29.282-50.629
		c17.501-10.084,29.282-28.981,29.282-50.63c0-21.649-11.781-40.545-29.282-50.629C177.182,69.858,188.964,50.961,188.964,29.313z
		 M173.456,130.571c0,23.444-18.813,42.491-42.166,42.876c-0.24-0.003-0.479-0.009-0.719-0.009c-0.24,0-0.479,0.006-0.719,0.009
		c-23.353-0.384-42.166-19.432-42.166-42.876c0-23.439,18.805-42.483,42.151-42.876c0.245,0.003,0.489,0.009,0.734,0.009
		c0.246,0,0.49-0.006,0.734-0.009C154.651,88.088,173.456,107.132,173.456,130.571z"/>
</g>
</svg>
